{"title":"Taking Stock 2015 Movies HDRip XviD AAC New Source +Sample ☻rDX☻","uid":15048178,"size":738890687,"categoryP":"video","categoryS":"movies","magnet":"?xt=urn:btih:96b3c34c8bbec81faf4d5ee10e4a3deadba5cc82&amp;dn=Taking+Stock+2015+Movies+HDRip+XviD+AAC+New+Source+%2BSample+%E2%98%BBrDX%E2%98%BB&amp;tr=udp%3A%2F%2Ftracker.leechers-paradise.org%3A6969&amp;tr=udp%3A%2F%2Fzer0day.ch%3A1337&amp;tr=udp%3A%2F%2Fopen.demonii.com%3A1337&amp;tr=udp%3A%2F%2Ftracker.coppersurfer.tk%3A6969&amp;tr=udp%3A%2F%2Fexodus.desync.com%3A6969","seeders":0,"leechers":1,"uploader":"basicssom","files":2,"time":1466648361,"description":"----------------------------------------------------------------\r\nTaking Stock 2015 English Movies HDRip XviD AAC New Source with Sample ☻rDX☻\r\n\r\nSCREEN SHOTS &amp; POSTER:\r\n  \nhttp://mobileshosting.com/2016/6/diner/index.htm  \nhttp://mobileshosting.com/2016/6/diner/1.html  \nhttp://mobileshosting.com/2016/6/diner/2.html  \nhttp://mobileshosting.com/2016/6/diner/3.html  \nhttp://mobileshosting.com/2016/6/diner/4.html  \nhttp://mobileshosting.com/2016/6/diner/5.html  \nhttp://mobileshosting.com/2016/6/diner/6.html  \nhttp://mobileshosting.com/2016/6/diner/7.html  \nhttp://mobileshosting.com/2016/6/diner/8.html  \nhttp://mobileshosting.com/2016/6/diner/9.html  \nhttp://mobileshosting.com/2016/6/diner/10.html\r\n\r\nFormat                                   : Matroska\r\nFormat version                           : Version 4 / Version 2\r\nFile size                                : 695 MiB\r\nDuration                                 : 1h 12mn\r\nOverall bit rate                         : 1 347 Kbps\r\nMovie name                               : Taking Stock 2015 English Movies HDRip XviD AAC New Source ☻rDX☻\r\n\r\nVideo\r\nID                                       : 1\r\nFormat                                   : MPEG-4 Visual\r\nFormat profile                           : Advanced   \r\nFormat settings, BVOP                    : Yes\r\nFormat settings, QPel                    : No\r\nFormat settings, GMC                     : No warppoints\r\nFormat settings, Matrix                  : Default (H.263)\r\nCodec ID                                 : V_MS/VFW/FOURCC / XVID\r\nCodec ID/Hint                            : XviD\r\nDuration                                 : 1h 12mn\r\nBit rate                                 : 1 192 Kbps\r\nWidth                                    : 640 pixels\r\nHeight                                   : 352 pixels\r\nDisplay aspect ratio                     : 16:9\r\nFrame rate mode                          : Constant\r\nFrame rate                               : 25.000 fps\r\nColor space                              : YUV\r\nChroma subsampling                       : 4:2:0\r\nBit depth                                : 8 bits\r\nScan type                                : Progressive\r\nCompression mode                         : Lossy\r\nBits/(Pixel*Frame)                       : 0.212\r\nStream size                              : 615 MiB (89%)\r\nTitle                                    : ☻rDX☻\r\nWriting library                          : XviD 65\r\nDefault                                  : Yes\r\nForced                                   : No\r\n\r\nAudio\r\nID                                       : 2\r\nFormat                                   : MPEG Audio\r\nFormat version                           : Version 1\r\nFormat profile                           : Layer 3\r\nMode                                     : Joint stereo\r\nMode extension                           : MS Stereo\r\nCodec ID                                 : A_MPEG/L3\r\nCodec ID/Hint                            : MP3\r\nDuration                                 : 1h 12mn\r\nBit rate mode                            : Constant\r\nBit rate                                 : 128 Kbps\r\nChannel(s)                               : 2 channels\r\nSampling rate                            : 48.0 KHz\r\nCompression mode                         : Lossy\r\nStream size                              : 66.0 MiB (10%)\r\nTitle                                    : ☻rDX☻\r\nWriting library                          : LAME3.99r\r\nEncoding settings                        : -m j -V 4 -q 3 -lowpass 17 -b 128\r\nDefault                                  : Yes\r\nForced                                   : No\r\n\r\nIMDB \nhttp://www.imdb.com/title/tt2073091/","torrent":{"xt":"urn:btih:96b3c34c8bbec81faf4d5ee10e4a3deadba5cc82","amp;dn":"Taking+Stock+2015+Movies+HDRip+XviD+AAC+New+Source+%2BSample+%E2%98%BBrDX%E2%98%BB","amp;tr":["udp%3A%2F%2Ftracker.leechers-paradise.org%3A6969","udp%3A%2F%2Fzer0day.ch%3A1337","udp%3A%2F%2Fopen.demonii.com%3A1337","udp%3A%2F%2Ftracker.coppersurfer.tk%3A6969","udp%3A%2F%2Fexodus.desync.com%3A6969"],"infoHash":"96b3c34c8bbec81faf4d5ee10e4a3deadba5cc82","infoHashBuffer":{"type":"Buffer","data":[150,179,195,76,139,190,200,31,175,77,94,225,14,74,61,234,219,165,204,130]},"announce":[],"urlList":[]}}